<?xml version="1.0" standalone="no"?>
<!DOCTYPE svg PUBLIC "-//W3C//DTD SVG 20010904//EN"
 "http://www.w3.org/TR/2001/REC-SVG-20010904/DTD/svg10.dtd">
<svg version="1.0" xmlns="http://www.w3.org/2000/svg"
 width="215.000000pt" height="215.000000pt" viewBox="0 0 215.000000 215.000000"
 preserveAspectRatio="xMidYMid meet">
<metadata>
Created by potrace 1.16, written by Peter Selinger 2001-2019
</metadata>
<g transform="translate(0.000000,215.000000) scale(0.100000,-0.100000)"
fill="#414141" stroke="none">
<path d="M866 2134 c-210 -41 -385 -134 -543 -287 -138 -134 -233 -293 -289
-482 -32 -111 -44 -338 -24 -463 35 -222 132 -413 293 -579 210 -216 465 -323
772 -323 299 0 540 97 752 303 216 210 323 465 323 772 0 307 -107 562 -323
772 -160 155 -335 247 -550 288 -98 19 -316 18 -411 -1z m374 -552 c90 -31
133 -57 178 -106 40 -44 48 -66 42 -121 -5 -47 -68 -79 -125 -63 -16 4 -52 30
-80 57 -27 28 -68 57 -89 67 -55 22 -162 22 -210 -1 -59 -28 -83 -96 -50 -143
24 -35 62 -50 226 -87 224 -52 301 -94 350 -190 29 -55 34 -148 14 -220 -23
-78 -105 -162 -190 -194 -172 -64 -399 -43 -538 49 -109 73 -143 203 -65 250
60 37 81 29 171 -63 72 -74 87 -85 135 -97 65 -15 151 -8 194 17 49 29 80 81
73 123 -10 63 -44 82 -232 129 -246 62 -302 91 -349 184 -35 70 -35 179 -1
252 39 84 123 144 240 171 82 18 233 12 306 -14z"/>
</g>
</svg>
