<?xml version="1.0" standalone="no"?>
<!DOCTYPE svg PUBLIC "-//W3C//DTD SVG 20010904//EN"
 "http://www.w3.org/TR/2001/REC-SVG-20010904/DTD/svg10.dtd">
<svg version="1.0" xmlns="http://www.w3.org/2000/svg"
 width="215.000000pt" height="215.000000pt" viewBox="0 0 215.000000 215.000000"
 preserveAspectRatio="xMidYMid meet">
<metadata>
Created by potrace 1.16, written by Peter Selinger 2001-2019
</metadata>
<g transform="translate(0.000000,215.000000) scale(0.100000,-0.100000)"
fill="#fff" stroke="none">
<path d="M866 2134 c-210 -41 -385 -134 -543 -287 -138 -134 -233 -293 -289
-482 -32 -111 -44 -338 -24 -463 35 -222 132 -413 293 -579 210 -216 465 -323
772 -323 299 0 540 97 752 303 216 210 323 465 323 772 0 307 -107 562 -323
772 -160 155 -335 247 -550 288 -98 19 -316 18 -411 -1z m694 -644 c11 -11 20
-27 20 -34 0 -86 -124 -825 -145 -866 -19 -37 -53 -52 -93 -41 -32 10 -351
219 -394 259 -56 52 -55 52 201 292 131 122 150 145 132 163 -7 7 -81 -37
-245 -146 -280 -186 -286 -189 -345 -189 -58 1 -239 57 -266 83 -19 19 -19 19
5 43 25 24 532 247 855 376 225 90 242 93 275 60z"/>
</g>
</svg>
