<?xml version="1.0" standalone="no"?>
<!DOCTYPE svg PUBLIC "-//W3C//DTD SVG 20010904//EN"
 "http://www.w3.org/TR/2001/REC-SVG-20010904/DTD/svg10.dtd">
<svg version="1.0" xmlns="http://www.w3.org/2000/svg"
 width="215.000000pt" height="215.000000pt" viewBox="0 0 215.000000 215.000000"
 preserveAspectRatio="xMidYMid meet">
<metadata>
Created by potrace 1.16, written by Peter Selinger 2001-2019
</metadata>
<g transform="translate(0.000000,215.000000) scale(0.100000,-0.100000)"
fill="#fff" stroke="none">
<path d="M866 2134 c-210 -41 -385 -134 -543 -287 -138 -134 -233 -293 -289
-482 -32 -111 -44 -338 -24 -463 35 -222 132 -413 293 -579 210 -216 465 -323
772 -323 299 0 540 97 752 303 216 210 323 465 323 772 0 307 -107 562 -323
772 -160 155 -335 247 -550 288 -98 19 -316 18 -411 -1z m336 -535 c78 -16
173 -66 236 -124 228 -208 238 -551 23 -765 -163 -162 -385 -202 -606 -110
-26 11 -46 8 -165 -23 -74 -20 -136 -35 -137 -33 -1 1 14 61 34 133 l36 131
-27 67 c-86 216 -35 445 135 599 127 114 301 160 471 125z"/>
<path d="M955 1503 c-264 -95 -385 -378 -264 -618 l29 -58 -20 -75 c-11 -41
-19 -77 -16 -79 2 -2 39 5 81 16 l78 20 41 -21 c125 -64 278 -63 406 2 69 35
157 125 190 194 109 229 18 487 -209 595 -68 32 -86 36 -171 38 -72 3 -107 -1
-145 -14z m9 -225 c39 -88 39 -93 10 -127 l-26 -31 34 -48 c34 -48 112 -108
153 -118 18 -4 31 3 57 30 l33 36 61 -29 c34 -16 64 -33 67 -38 14 -23 -14
-82 -49 -104 -84 -52 -237 2 -360 127 -94 95 -128 163 -122 241 4 48 10 61 37
85 17 15 43 28 57 28 21 0 29 -9 48 -52z"/>
</g>
</svg>
