<?xml version="1.0" standalone="no"?>
<!DOCTYPE svg PUBLIC "-//W3C//DTD SVG 20010904//EN"
 "http://www.w3.org/TR/2001/REC-SVG-20010904/DTD/svg10.dtd">
<svg version="1.0" xmlns="http://www.w3.org/2000/svg"
 width="215.000000pt" height="215.000000pt" viewBox="0 0 215.000000 215.000000"
 preserveAspectRatio="xMidYMid meet">
<metadata>
Created by potrace 1.16, written by Peter Selinger 2001-2019
</metadata>
<g transform="translate(0.000000,215.000000) scale(0.100000,-0.100000)"
fill="#414141" stroke="none">
<path d="M866 2134 c-210 -41 -385 -134 -543 -287 -138 -134 -233 -293 -289
-482 -32 -111 -44 -338 -24 -463 35 -222 132 -413 293 -579 210 -216 465 -323
772 -323 299 0 540 97 752 303 216 210 323 465 323 772 0 307 -107 562 -323
772 -160 155 -335 247 -550 288 -98 19 -316 18 -411 -1z m-206 -736 c0 -68 35
-218 66 -283 32 -69 132 -174 182 -192 l32 -11 0 264 0 264 100 0 100 0 0
-150 c0 -113 3 -150 13 -150 6 0 31 9 55 20 65 30 143 114 187 203 l38 77 95
0 95 0 -7 -32 c-19 -99 -123 -249 -218 -319 l-38 -27 28 -17 c113 -73 187
-152 240 -260 55 -112 60 -105 -66 -105 l-109 0 -18 46 c-36 93 -162 199 -262
219 l-33 7 0 -136 0 -136 -57 0 c-126 1 -274 51 -376 128 -95 72 -186 221
-221 362 -18 75 -36 190 -36 238 l0 32 105 0 105 0 0 -42z"/>
</g>
</svg>
