<?xml version="1.0" encoding="UTF-8" standalone="no"?>
<svg
   xmlns:dc="http://purl.org/dc/elements/1.1/"
   xmlns:cc="http://creativecommons.org/ns#"
   xmlns:rdf="http://www.w3.org/1999/02/22-rdf-syntax-ns#"
   xmlns:svg="http://www.w3.org/2000/svg"
   xmlns="http://www.w3.org/2000/svg"
   viewBox="0 0 486.66666 486.66666"
   height="486.66666"
   width="486.66666"
   xml:space="preserve"
   id="svg2"
   version="1.1"><metadata
     id="metadata8"><rdf:RDF><cc:Work
         rdf:about=""><dc:format>image/svg+xml</dc:format><dc:type
           rdf:resource="http://purl.org/dc/dcmitype/StillImage" /></cc:Work></rdf:RDF></metadata><defs
     id="defs6" /><g
     transform="matrix(1.3333333,0,0,-1.3333333,0,486.66667)"
     id="g10"><g
       transform="scale(0.1)"
       id="g12"><path
         id="path14"
         style="fill:#4bb8e4;fill-opacity:1;fill-rule:nonzero;stroke:none"
         d="M 2563.55,1345.94 1760.84,199.609 c -118.34,0 -355.02,35.641 -460.53,82.692 L 1997.52,955.27 C 1738.03,896.82 1465.7,943.871 1253.26,1120.66 1003.75,1311.72 898.242,1629.67 932.461,1924.8 L 306.543,1240.43 c 0,0 -82.695,153.98 -106.934,437.71 l 1097.851,862.6 c 330.78,236.68 779.9,248.09 1097.85,0 356.45,-285.15 427.74,-804.14 168.24,-1194.8 z M 1819.3,3650 C 815.547,3650 0,2834.45 0,1830.7 0,815.551 815.547,0 1819.3,0 2834.45,0 3650,815.551 3650,1830.7 3650,2834.45 2834.45,3650 1819.3,3650" /><path
         id="path16"
         style="fill:#4bb8e4;fill-opacity:1;fill-rule:nonzero;stroke:none"
         d="m 2197.13,2291.23 c -248.09,189.63 -614.51,141.15 -826.95,-106.93 -201.04,-259.5 -165.39,-625.92 82.69,-815.55 248.09,-201.04 614.51,-153.98 815.55,106.93 212.44,249.52 176.79,614.52 -71.29,815.55" /></g></g></svg>